<mxfile host="65bd71144e">
    <diagram id="uMuDxD5DMnvc-1EqZ9Wu" name="Page-1">
        <mxGraphModel dx="1223" dy="527" grid="1" gridSize="10" guides="1" tooltips="1" connect="1" arrows="1" fold="1" page="1" pageScale="1" pageWidth="850" pageHeight="1100" math="0" shadow="0">
            <root>
                <mxCell id="0"/>
                <mxCell id="1" parent="0"/>
                <mxCell id="jTwdW5Tq-EGUHv7Ei33s-1" value="" style="endArrow=none;html=1;" parent="1" edge="1">
                    <mxGeometry width="50" height="50" relative="1" as="geometry">
                        <mxPoint x="160" y="440" as="sourcePoint"/>
                        <mxPoint x="800" y="440" as="targetPoint"/>
                    </mxGeometry>
                </mxCell>
                <mxCell id="jTwdW5Tq-EGUHv7Ei33s-2" value="main" style="text;html=1;strokeColor=none;fillColor=none;align=center;verticalAlign=middle;whiteSpace=wrap;rounded=0;" parent="1" vertex="1">
                    <mxGeometry x="120" y="430" width="40" height="20" as="geometry"/>
                </mxCell>
                <mxCell id="jTwdW5Tq-EGUHv7Ei33s-3" value="" style="endArrow=none;html=1;" parent="1" edge="1">
                    <mxGeometry width="50" height="50" relative="1" as="geometry">
                        <mxPoint x="200" y="440" as="sourcePoint"/>
                        <mxPoint x="280" y="520" as="targetPoint"/>
                    </mxGeometry>
                </mxCell>
                <mxCell id="jTwdW5Tq-EGUHv7Ei33s-4" value="" style="endArrow=none;html=1;" parent="1" edge="1">
                    <mxGeometry width="50" height="50" relative="1" as="geometry">
                        <mxPoint x="280" y="520" as="sourcePoint"/>
                        <mxPoint x="480" y="520" as="targetPoint"/>
                    </mxGeometry>
                </mxCell>
                <mxCell id="jTwdW5Tq-EGUHv7Ei33s-5" value="release/1.0" style="text;html=1;strokeColor=none;fillColor=none;align=right;verticalAlign=middle;whiteSpace=wrap;rounded=0;" parent="1" vertex="1">
                    <mxGeometry x="230" y="510" width="40" height="20" as="geometry"/>
                </mxCell>
                <mxCell id="jTwdW5Tq-EGUHv7Ei33s-6" value="" style="endArrow=none;html=1;" parent="1" edge="1">
                    <mxGeometry width="50" height="50" relative="1" as="geometry">
                        <mxPoint x="510" y="440" as="sourcePoint"/>
                        <mxPoint x="590" y="520" as="targetPoint"/>
                    </mxGeometry>
                </mxCell>
                <mxCell id="jTwdW5Tq-EGUHv7Ei33s-7" value="" style="endArrow=none;html=1;" parent="1" edge="1">
                    <mxGeometry width="50" height="50" relative="1" as="geometry">
                        <mxPoint x="590" y="520" as="sourcePoint"/>
                        <mxPoint x="750" y="520" as="targetPoint"/>
                    </mxGeometry>
                </mxCell>
                <mxCell id="jTwdW5Tq-EGUHv7Ei33s-8" value="release/v1.1" style="text;html=1;strokeColor=none;fillColor=none;align=right;verticalAlign=middle;whiteSpace=wrap;rounded=0;" parent="1" vertex="1">
                    <mxGeometry x="541.23" y="510" width="40" height="20" as="geometry"/>
                </mxCell>
                <mxCell id="jTwdW5Tq-EGUHv7Ei33s-9" value="major.minor.patch" style="text;html=1;strokeColor=none;fillColor=none;align=left;verticalAlign=middle;whiteSpace=wrap;rounded=0;" parent="1" vertex="1">
                    <mxGeometry x="115.23" y="370" width="120" height="20" as="geometry"/>
                </mxCell>
                <mxCell id="jTwdW5Tq-EGUHv7Ei33s-12" value="breaking.feature.fix" style="text;html=1;strokeColor=none;fillColor=none;align=left;verticalAlign=middle;whiteSpace=wrap;rounded=0;" parent="1" vertex="1">
                    <mxGeometry x="115.23" y="390" width="120" height="20" as="geometry"/>
                </mxCell>
                <mxCell id="jTwdW5Tq-EGUHv7Ei33s-18" style="edgeStyle=orthogonalEdgeStyle;rounded=0;orthogonalLoop=1;jettySize=auto;html=1;exitX=0.5;exitY=1;exitDx=0;exitDy=0;" parent="1" source="jTwdW5Tq-EGUHv7Ei33s-15" edge="1">
                    <mxGeometry relative="1" as="geometry">
                        <mxPoint x="310" y="520" as="targetPoint"/>
                    </mxGeometry>
                </mxCell>
                <mxCell id="jTwdW5Tq-EGUHv7Ei33s-15" value="1.0.0" style="rounded=1;whiteSpace=wrap;html=1;" parent="1" vertex="1">
                    <mxGeometry x="290" y="480" width="40" height="20" as="geometry"/>
                </mxCell>
                <mxCell id="jTwdW5Tq-EGUHv7Ei33s-19" style="edgeStyle=orthogonalEdgeStyle;rounded=0;orthogonalLoop=1;jettySize=auto;html=1;exitX=0.5;exitY=1;exitDx=0;exitDy=0;" parent="1" source="jTwdW5Tq-EGUHv7Ei33s-16" edge="1">
                    <mxGeometry relative="1" as="geometry">
                        <mxPoint x="370" y="520" as="targetPoint"/>
                    </mxGeometry>
                </mxCell>
                <mxCell id="jTwdW5Tq-EGUHv7Ei33s-16" value="1.0.1" style="rounded=1;whiteSpace=wrap;html=1;" parent="1" vertex="1">
                    <mxGeometry x="350" y="480" width="40" height="20" as="geometry"/>
                </mxCell>
                <mxCell id="jTwdW5Tq-EGUHv7Ei33s-46" style="edgeStyle=orthogonalEdgeStyle;rounded=0;orthogonalLoop=1;jettySize=auto;html=1;exitX=0.5;exitY=1;exitDx=0;exitDy=0;startArrow=none;startFill=0;endArrow=classic;endFill=1;strokeWidth=1;" parent="1" source="jTwdW5Tq-EGUHv7Ei33s-17" edge="1">
                    <mxGeometry relative="1" as="geometry">
                        <mxPoint x="410" y="520" as="targetPoint"/>
                    </mxGeometry>
                </mxCell>
                <mxCell id="jTwdW5Tq-EGUHv7Ei33s-17" value="1.0.2" style="rounded=1;whiteSpace=wrap;html=1;" parent="1" vertex="1">
                    <mxGeometry x="425" y="460" width="40" height="20" as="geometry"/>
                </mxCell>
                <mxCell id="jTwdW5Tq-EGUHv7Ei33s-24" style="edgeStyle=orthogonalEdgeStyle;rounded=0;orthogonalLoop=1;jettySize=auto;html=1;exitX=0.5;exitY=1;exitDx=0;exitDy=0;" parent="1" source="jTwdW5Tq-EGUHv7Ei33s-21" edge="1">
                    <mxGeometry relative="1" as="geometry">
                        <mxPoint x="620" y="520" as="targetPoint"/>
                    </mxGeometry>
                </mxCell>
                <mxCell id="jTwdW5Tq-EGUHv7Ei33s-21" value="1.1.0" style="rounded=1;whiteSpace=wrap;html=1;" parent="1" vertex="1">
                    <mxGeometry x="600" y="480" width="40" height="20" as="geometry"/>
                </mxCell>
                <mxCell id="jTwdW5Tq-EGUHv7Ei33s-25" style="edgeStyle=orthogonalEdgeStyle;rounded=0;orthogonalLoop=1;jettySize=auto;html=1;exitX=0.5;exitY=1;exitDx=0;exitDy=0;" parent="1" source="jTwdW5Tq-EGUHv7Ei33s-22" edge="1">
                    <mxGeometry relative="1" as="geometry">
                        <mxPoint x="680" y="520" as="targetPoint"/>
                    </mxGeometry>
                </mxCell>
                <mxCell id="jTwdW5Tq-EGUHv7Ei33s-22" value="1.1.1" style="rounded=1;whiteSpace=wrap;html=1;" parent="1" vertex="1">
                    <mxGeometry x="660" y="480" width="40" height="20" as="geometry"/>
                </mxCell>
                <mxCell id="jTwdW5Tq-EGUHv7Ei33s-49" style="edgeStyle=orthogonalEdgeStyle;rounded=0;orthogonalLoop=1;jettySize=auto;html=1;exitX=0.5;exitY=1;exitDx=0;exitDy=0;startArrow=none;startFill=0;endArrow=classic;endFill=1;strokeWidth=1;" parent="1" source="jTwdW5Tq-EGUHv7Ei33s-23" edge="1">
                    <mxGeometry relative="1" as="geometry">
                        <mxPoint x="730" y="520" as="targetPoint"/>
                    </mxGeometry>
                </mxCell>
                <mxCell id="jTwdW5Tq-EGUHv7Ei33s-23" value="1.1.2" style="rounded=1;whiteSpace=wrap;html=1;" parent="1" vertex="1">
                    <mxGeometry x="750" y="460" width="40" height="20" as="geometry"/>
                </mxCell>
                <mxCell id="jTwdW5Tq-EGUHv7Ei33s-28" value="" style="endArrow=none;html=1;strokeWidth=1;" parent="1" edge="1">
                    <mxGeometry width="50" height="50" relative="1" as="geometry">
                        <mxPoint x="290" y="440" as="sourcePoint"/>
                        <mxPoint x="300" y="420" as="targetPoint"/>
                    </mxGeometry>
                </mxCell>
                <mxCell id="jTwdW5Tq-EGUHv7Ei33s-29" value="" style="endArrow=none;html=1;strokeWidth=1;" parent="1" edge="1">
                    <mxGeometry width="50" height="50" relative="1" as="geometry">
                        <mxPoint x="300" y="419.9" as="sourcePoint"/>
                        <mxPoint x="390" y="419.9" as="targetPoint"/>
                    </mxGeometry>
                </mxCell>
                <mxCell id="jTwdW5Tq-EGUHv7Ei33s-30" value="feature/xyz" style="text;html=1;strokeColor=none;fillColor=none;align=center;verticalAlign=middle;whiteSpace=wrap;rounded=0;" parent="1" vertex="1">
                    <mxGeometry x="245.23" y="408" width="40" height="20" as="geometry"/>
                </mxCell>
                <mxCell id="jTwdW5Tq-EGUHv7Ei33s-31" value="" style="endArrow=none;html=1;strokeWidth=1;" parent="1" edge="1">
                    <mxGeometry width="50" height="50" relative="1" as="geometry">
                        <mxPoint x="400" y="440" as="sourcePoint"/>
                        <mxPoint x="390" y="420" as="targetPoint"/>
                    </mxGeometry>
                </mxCell>
                <mxCell id="jTwdW5Tq-EGUHv7Ei33s-33" value="" style="endArrow=none;dashed=1;html=1;strokeWidth=1;startArrow=classic;startFill=1;" parent="1" edge="1">
                    <mxGeometry width="50" height="50" relative="1" as="geometry">
                        <mxPoint x="410" y="520" as="sourcePoint"/>
                        <mxPoint x="410" y="440" as="targetPoint"/>
                    </mxGeometry>
                </mxCell>
                <mxCell id="jTwdW5Tq-EGUHv7Ei33s-34" value="PR" style="edgeLabel;html=1;align=center;verticalAlign=middle;resizable=0;points=[];" parent="jTwdW5Tq-EGUHv7Ei33s-33" vertex="1" connectable="0">
                    <mxGeometry x="-0.045" y="1" relative="1" as="geometry">
                        <mxPoint as="offset"/>
                    </mxGeometry>
                </mxCell>
                <mxCell id="jTwdW5Tq-EGUHv7Ei33s-35" value="" style="endArrow=none;html=1;strokeWidth=1;" parent="1" edge="1">
                    <mxGeometry width="50" height="50" relative="1" as="geometry">
                        <mxPoint x="580" y="440" as="sourcePoint"/>
                        <mxPoint x="590" y="420" as="targetPoint"/>
                    </mxGeometry>
                </mxCell>
                <mxCell id="jTwdW5Tq-EGUHv7Ei33s-36" value="fix/important" style="text;html=1;strokeColor=none;fillColor=none;align=center;verticalAlign=middle;whiteSpace=wrap;rounded=0;" parent="1" vertex="1">
                    <mxGeometry x="530" y="410" width="40" height="20" as="geometry"/>
                </mxCell>
                <mxCell id="jTwdW5Tq-EGUHv7Ei33s-37" value="" style="endArrow=none;html=1;strokeWidth=1;" parent="1" edge="1">
                    <mxGeometry width="50" height="50" relative="1" as="geometry">
                        <mxPoint x="590" y="420" as="sourcePoint"/>
                        <mxPoint x="710" y="420" as="targetPoint"/>
                    </mxGeometry>
                </mxCell>
                <mxCell id="jTwdW5Tq-EGUHv7Ei33s-38" value="" style="endArrow=none;html=1;strokeWidth=1;" parent="1" edge="1">
                    <mxGeometry width="50" height="50" relative="1" as="geometry">
                        <mxPoint x="720" y="440" as="sourcePoint"/>
                        <mxPoint x="710" y="420" as="targetPoint"/>
                    </mxGeometry>
                </mxCell>
                <mxCell id="jTwdW5Tq-EGUHv7Ei33s-39" value="" style="endArrow=none;dashed=1;html=1;strokeWidth=1;startArrow=classic;startFill=1;" parent="1" edge="1">
                    <mxGeometry width="50" height="50" relative="1" as="geometry">
                        <mxPoint x="730" y="520" as="sourcePoint"/>
                        <mxPoint x="730" y="440" as="targetPoint"/>
                    </mxGeometry>
                </mxCell>
                <mxCell id="jTwdW5Tq-EGUHv7Ei33s-45" value="PR" style="edgeLabel;html=1;align=center;verticalAlign=middle;resizable=0;points=[];" parent="jTwdW5Tq-EGUHv7Ei33s-39" vertex="1" connectable="0">
                    <mxGeometry x="0.095" y="2" relative="1" as="geometry">
                        <mxPoint as="offset"/>
                    </mxGeometry>
                </mxCell>
                <mxCell id="jTwdW5Tq-EGUHv7Ei33s-40" value="" style="endArrow=none;dashed=1;html=1;strokeWidth=1;" parent="1" edge="1">
                    <mxGeometry width="50" height="50" relative="1" as="geometry">
                        <mxPoint x="710" y="360" as="sourcePoint"/>
                        <mxPoint x="710" y="420" as="targetPoint"/>
                    </mxGeometry>
                </mxCell>
                <mxCell id="jTwdW5Tq-EGUHv7Ei33s-42" value="" style="endArrow=none;dashed=1;html=1;strokeWidth=1;" parent="1" edge="1">
                    <mxGeometry width="50" height="50" relative="1" as="geometry">
                        <mxPoint x="710" y="360" as="sourcePoint"/>
                        <mxPoint x="470" y="360" as="targetPoint"/>
                    </mxGeometry>
                </mxCell>
                <mxCell id="jTwdW5Tq-EGUHv7Ei33s-43" value="cherrypick" style="edgeLabel;html=1;align=center;verticalAlign=middle;resizable=0;points=[];fontStyle=2" parent="jTwdW5Tq-EGUHv7Ei33s-42" vertex="1" connectable="0">
                    <mxGeometry x="-0.2873" relative="1" as="geometry">
                        <mxPoint x="-22.4" as="offset"/>
                    </mxGeometry>
                </mxCell>
                <mxCell id="jTwdW5Tq-EGUHv7Ei33s-44" value="" style="endArrow=none;dashed=1;html=1;strokeWidth=1;" parent="1" edge="1">
                    <mxGeometry width="50" height="50" relative="1" as="geometry">
                        <mxPoint x="470" y="360" as="sourcePoint"/>
                        <mxPoint x="470" y="520" as="targetPoint"/>
                    </mxGeometry>
                </mxCell>
                <mxCell id="jTwdW5Tq-EGUHv7Ei33s-48" style="edgeStyle=orthogonalEdgeStyle;rounded=0;orthogonalLoop=1;jettySize=auto;html=1;exitX=0.5;exitY=1;exitDx=0;exitDy=0;startArrow=none;startFill=0;endArrow=classic;endFill=1;strokeWidth=1;" parent="1" source="jTwdW5Tq-EGUHv7Ei33s-47" edge="1">
                    <mxGeometry relative="1" as="geometry">
                        <mxPoint x="470" y="520" as="targetPoint"/>
                    </mxGeometry>
                </mxCell>
                <mxCell id="jTwdW5Tq-EGUHv7Ei33s-47" value="1.0.3" style="rounded=1;whiteSpace=wrap;html=1;" parent="1" vertex="1">
                    <mxGeometry x="485" y="460" width="40" height="20" as="geometry"/>
                </mxCell>
                <mxCell id="jTwdW5Tq-EGUHv7Ei33s-50" value="" style="pointerEvents=1;shadow=0;dashed=0;html=1;strokeColor=none;fillColor=#505050;labelPosition=center;verticalLabelPosition=bottom;verticalAlign=top;outlineConnect=0;align=center;shape=mxgraph.office.security.lock_protected;" parent="1" vertex="1">
                    <mxGeometry x="196.00000000000003" y="514" width="8.77" height="12" as="geometry"/>
                </mxCell>
                <mxCell id="jTwdW5Tq-EGUHv7Ei33s-51" value="" style="pointerEvents=1;shadow=0;dashed=0;html=1;strokeColor=none;fillColor=#505050;labelPosition=center;verticalLabelPosition=bottom;verticalAlign=top;outlineConnect=0;align=center;shape=mxgraph.office.security.lock_protected;" parent="1" vertex="1">
                    <mxGeometry x="500.61" y="514" width="8.77" height="12" as="geometry"/>
                </mxCell>
                <mxCell id="jTwdW5Tq-EGUHv7Ei33s-52" value="" style="pointerEvents=1;shadow=0;dashed=0;html=1;strokeColor=none;fillColor=#505050;labelPosition=center;verticalLabelPosition=bottom;verticalAlign=top;outlineConnect=0;align=center;shape=mxgraph.office.security.lock_protected;" parent="1" vertex="1">
                    <mxGeometry x="115.23000000000002" y="434" width="8.77" height="12" as="geometry"/>
                </mxCell>
                <mxCell id="jTwdW5Tq-EGUHv7Ei33s-53" value="&lt;b&gt;Semantic Versioning:&lt;/b&gt;" style="text;html=1;strokeColor=none;fillColor=none;align=left;verticalAlign=middle;whiteSpace=wrap;rounded=0;" parent="1" vertex="1">
                    <mxGeometry x="115.23" y="350" width="130" height="20" as="geometry"/>
                </mxCell>
                <mxCell id="jTwdW5Tq-EGUHv7Ei33s-56" value="" style="aspect=fixed;html=1;points=[];align=center;image;fontSize=12;image=img/lib/mscae/Tag.svg;" parent="1" vertex="1">
                    <mxGeometry x="340" y="470" width="20" height="20" as="geometry"/>
                </mxCell>
                <mxCell id="jTwdW5Tq-EGUHv7Ei33s-57" value="" style="aspect=fixed;html=1;points=[];align=center;image;fontSize=12;image=img/lib/mscae/Tag.svg;" parent="1" vertex="1">
                    <mxGeometry x="280" y="470" width="20" height="20" as="geometry"/>
                </mxCell>
                <mxCell id="jTwdW5Tq-EGUHv7Ei33s-58" value="" style="aspect=fixed;html=1;points=[];align=center;image;fontSize=12;image=img/lib/mscae/Tag.svg;" parent="1" vertex="1">
                    <mxGeometry x="415" y="450" width="20" height="20" as="geometry"/>
                </mxCell>
                <mxCell id="jTwdW5Tq-EGUHv7Ei33s-59" value="" style="aspect=fixed;html=1;points=[];align=center;image;fontSize=12;image=img/lib/mscae/Tag.svg;" parent="1" vertex="1">
                    <mxGeometry x="473" y="450" width="20" height="20" as="geometry"/>
                </mxCell>
                <mxCell id="jTwdW5Tq-EGUHv7Ei33s-62" value="" style="aspect=fixed;html=1;points=[];align=center;image;fontSize=12;image=img/lib/mscae/Tag.svg;" parent="1" vertex="1">
                    <mxGeometry x="590" y="470" width="20" height="20" as="geometry"/>
                </mxCell>
                <mxCell id="jTwdW5Tq-EGUHv7Ei33s-63" value="" style="aspect=fixed;html=1;points=[];align=center;image;fontSize=12;image=img/lib/mscae/Tag.svg;" parent="1" vertex="1">
                    <mxGeometry x="650" y="470" width="20" height="20" as="geometry"/>
                </mxCell>
                <mxCell id="jTwdW5Tq-EGUHv7Ei33s-64" value="" style="aspect=fixed;html=1;points=[];align=center;image;fontSize=12;image=img/lib/mscae/Tag.svg;" parent="1" vertex="1">
                    <mxGeometry x="740" y="450" width="20" height="20" as="geometry"/>
                </mxCell>
                <mxCell id="2" value="" style="endArrow=none;html=1;" edge="1" parent="1">
                    <mxGeometry width="50" height="50" relative="1" as="geometry">
                        <mxPoint x="160.00000000000045" y="720.0000000000002" as="sourcePoint"/>
                        <mxPoint x="800" y="720.0000000000002" as="targetPoint"/>
                    </mxGeometry>
                </mxCell>
                <mxCell id="3" value="main" style="text;html=1;strokeColor=none;fillColor=none;align=center;verticalAlign=middle;whiteSpace=wrap;rounded=0;" vertex="1" parent="1">
                    <mxGeometry x="120" y="710" width="40" height="20" as="geometry"/>
                </mxCell>
                <mxCell id="4" value="" style="endArrow=none;html=1;" edge="1" parent="1">
                    <mxGeometry width="50" height="50" relative="1" as="geometry">
                        <mxPoint x="200.00000000000045" y="720.0000000000002" as="sourcePoint"/>
                        <mxPoint x="240" y="760" as="targetPoint"/>
                    </mxGeometry>
                </mxCell>
                <mxCell id="5" value="" style="endArrow=none;html=1;" edge="1" parent="1">
                    <mxGeometry width="50" height="50" relative="1" as="geometry">
                        <mxPoint x="240" y="760" as="sourcePoint"/>
                        <mxPoint x="800" y="760" as="targetPoint"/>
                    </mxGeometry>
                </mxCell>
                <mxCell id="6" value="staging" style="text;html=1;strokeColor=none;fillColor=none;align=right;verticalAlign=middle;whiteSpace=wrap;rounded=0;" vertex="1" parent="1">
                    <mxGeometry x="190" y="750" width="40" height="20" as="geometry"/>
                </mxCell>
                <mxCell id="10" value="major.minor.patch" style="text;html=1;strokeColor=none;fillColor=none;align=left;verticalAlign=middle;whiteSpace=wrap;rounded=0;" vertex="1" parent="1">
                    <mxGeometry x="115.23" y="650" width="120" height="20" as="geometry"/>
                </mxCell>
                <mxCell id="11" value="breaking.feature.fix" style="text;html=1;strokeColor=none;fillColor=none;align=left;verticalAlign=middle;whiteSpace=wrap;rounded=0;" vertex="1" parent="1">
                    <mxGeometry x="115.23" y="670" width="120" height="20" as="geometry"/>
                </mxCell>
                <mxCell id="24" value="" style="endArrow=none;html=1;strokeWidth=1;" edge="1" parent="1">
                    <mxGeometry width="50" height="50" relative="1" as="geometry">
                        <mxPoint x="290.00000000000045" y="720.0000000000002" as="sourcePoint"/>
                        <mxPoint x="300.00000000000045" y="700.0000000000002" as="targetPoint"/>
                    </mxGeometry>
                </mxCell>
                <mxCell id="25" value="" style="endArrow=none;html=1;strokeWidth=1;" edge="1" parent="1">
                    <mxGeometry width="50" height="50" relative="1" as="geometry">
                        <mxPoint x="300.00000000000045" y="699.9000000000003" as="sourcePoint"/>
                        <mxPoint x="390.00000000000045" y="699.9000000000003" as="targetPoint"/>
                    </mxGeometry>
                </mxCell>
                <mxCell id="26" value="feature/xyz" style="text;html=1;strokeColor=none;fillColor=none;align=center;verticalAlign=middle;whiteSpace=wrap;rounded=0;" vertex="1" parent="1">
                    <mxGeometry x="245.23" y="688" width="40" height="20" as="geometry"/>
                </mxCell>
                <mxCell id="27" value="" style="endArrow=none;html=1;strokeWidth=1;" edge="1" parent="1">
                    <mxGeometry width="50" height="50" relative="1" as="geometry">
                        <mxPoint x="400.00000000000045" y="720.0000000000002" as="sourcePoint"/>
                        <mxPoint x="390.00000000000045" y="700.0000000000002" as="targetPoint"/>
                    </mxGeometry>
                </mxCell>
                <mxCell id="28" value="" style="endArrow=none;dashed=1;html=1;strokeWidth=1;startArrow=classic;startFill=1;" edge="1" parent="1">
                    <mxGeometry width="50" height="50" relative="1" as="geometry">
                        <mxPoint x="410" y="760" as="sourcePoint"/>
                        <mxPoint x="410.00000000000045" y="720.0000000000002" as="targetPoint"/>
                    </mxGeometry>
                </mxCell>
                <mxCell id="29" value="PR" style="edgeLabel;html=1;align=center;verticalAlign=middle;resizable=0;points=[];" vertex="1" connectable="0" parent="28">
                    <mxGeometry x="-0.045" y="1" relative="1" as="geometry">
                        <mxPoint y="-2" as="offset"/>
                    </mxGeometry>
                </mxCell>
                <mxCell id="30" value="" style="endArrow=none;html=1;strokeWidth=1;" edge="1" parent="1">
                    <mxGeometry width="50" height="50" relative="1" as="geometry">
                        <mxPoint x="580" y="720.0000000000002" as="sourcePoint"/>
                        <mxPoint x="590" y="700.0000000000002" as="targetPoint"/>
                    </mxGeometry>
                </mxCell>
                <mxCell id="31" value="fix/important" style="text;html=1;strokeColor=none;fillColor=none;align=center;verticalAlign=middle;whiteSpace=wrap;rounded=0;" vertex="1" parent="1">
                    <mxGeometry x="530" y="690" width="40" height="20" as="geometry"/>
                </mxCell>
                <mxCell id="32" value="" style="endArrow=none;html=1;strokeWidth=1;" edge="1" parent="1">
                    <mxGeometry width="50" height="50" relative="1" as="geometry">
                        <mxPoint x="590" y="700.0000000000002" as="sourcePoint"/>
                        <mxPoint x="710" y="700.0000000000002" as="targetPoint"/>
                    </mxGeometry>
                </mxCell>
                <mxCell id="33" value="" style="endArrow=none;html=1;strokeWidth=1;" edge="1" parent="1">
                    <mxGeometry width="50" height="50" relative="1" as="geometry">
                        <mxPoint x="720" y="720.0000000000002" as="sourcePoint"/>
                        <mxPoint x="710" y="700.0000000000002" as="targetPoint"/>
                    </mxGeometry>
                </mxCell>
                <mxCell id="36" value="" style="endArrow=none;dashed=1;html=1;strokeWidth=1;" edge="1" parent="1">
                    <mxGeometry width="50" height="50" relative="1" as="geometry">
                        <mxPoint x="710" y="640.0000000000002" as="sourcePoint"/>
                        <mxPoint x="710" y="700.0000000000002" as="targetPoint"/>
                    </mxGeometry>
                </mxCell>
                <mxCell id="37" value="" style="endArrow=none;dashed=1;html=1;strokeWidth=1;" edge="1" parent="1">
                    <mxGeometry width="50" height="50" relative="1" as="geometry">
                        <mxPoint x="710" y="640.0000000000002" as="sourcePoint"/>
                        <mxPoint x="470" y="640.0000000000002" as="targetPoint"/>
                    </mxGeometry>
                </mxCell>
                <mxCell id="38" value="cherrypick" style="edgeLabel;html=1;align=center;verticalAlign=middle;resizable=0;points=[];fontStyle=2" vertex="1" connectable="0" parent="37">
                    <mxGeometry x="-0.2873" relative="1" as="geometry">
                        <mxPoint x="-22.4" as="offset"/>
                    </mxGeometry>
                </mxCell>
                <mxCell id="39" value="" style="endArrow=classic;dashed=1;html=1;strokeWidth=1;endFill=1;" edge="1" parent="1">
                    <mxGeometry width="50" height="50" relative="1" as="geometry">
                        <mxPoint x="470" y="640.0000000000002" as="sourcePoint"/>
                        <mxPoint x="470" y="800" as="targetPoint"/>
                    </mxGeometry>
                </mxCell>
                <mxCell id="42" value="" style="pointerEvents=1;shadow=0;dashed=0;html=1;strokeColor=none;fillColor=#505050;labelPosition=center;verticalLabelPosition=bottom;verticalAlign=top;outlineConnect=0;align=center;shape=mxgraph.office.security.lock_protected;" vertex="1" parent="1">
                    <mxGeometry x="177.00000000000003" y="754" width="8.77" height="12" as="geometry"/>
                </mxCell>
                <mxCell id="44" value="" style="pointerEvents=1;shadow=0;dashed=0;html=1;strokeColor=none;fillColor=#505050;labelPosition=center;verticalLabelPosition=bottom;verticalAlign=top;outlineConnect=0;align=center;shape=mxgraph.office.security.lock_protected;" vertex="1" parent="1">
                    <mxGeometry x="115.23000000000002" y="714" width="8.77" height="12" as="geometry"/>
                </mxCell>
                <mxCell id="45" value="&lt;b&gt;Semantic Versioning:&lt;/b&gt;" style="text;html=1;strokeColor=none;fillColor=none;align=left;verticalAlign=middle;whiteSpace=wrap;rounded=0;" vertex="1" parent="1">
                    <mxGeometry x="115.23" y="630" width="130" height="20" as="geometry"/>
                </mxCell>
                <mxCell id="54" value="" style="endArrow=none;html=1;" edge="1" parent="1">
                    <mxGeometry width="50" height="50" relative="1" as="geometry">
                        <mxPoint x="239.77000000000046" y="760.0000000000002" as="sourcePoint"/>
                        <mxPoint x="279.77" y="800" as="targetPoint"/>
                    </mxGeometry>
                </mxCell>
                <mxCell id="55" value="" style="endArrow=none;html=1;" edge="1" parent="1">
                    <mxGeometry width="50" height="50" relative="1" as="geometry">
                        <mxPoint x="279.77" y="800" as="sourcePoint"/>
                        <mxPoint x="800" y="800" as="targetPoint"/>
                    </mxGeometry>
                </mxCell>
                <mxCell id="56" value="release" style="text;html=1;strokeColor=none;fillColor=none;align=right;verticalAlign=middle;whiteSpace=wrap;rounded=0;" vertex="1" parent="1">
                    <mxGeometry x="229.77" y="790" width="40" height="20" as="geometry"/>
                </mxCell>
                <mxCell id="57" value="" style="pointerEvents=1;shadow=0;dashed=0;html=1;strokeColor=none;fillColor=#505050;labelPosition=center;verticalLabelPosition=bottom;verticalAlign=top;outlineConnect=0;align=center;shape=mxgraph.office.security.lock_protected;" vertex="1" parent="1">
                    <mxGeometry x="216.77000000000004" y="794" width="8.77" height="12" as="geometry"/>
                </mxCell>
                <mxCell id="58" value="" style="endArrow=none;dashed=1;html=1;strokeWidth=1;startArrow=classic;startFill=1;" edge="1" parent="1">
                    <mxGeometry width="50" height="50" relative="1" as="geometry">
                        <mxPoint x="450" y="800" as="sourcePoint"/>
                        <mxPoint x="450.00000000000045" y="760.0000000000002" as="targetPoint"/>
                    </mxGeometry>
                </mxCell>
                <mxCell id="59" value="PR" style="edgeLabel;html=1;align=center;verticalAlign=middle;resizable=0;points=[];" vertex="1" connectable="0" parent="58">
                    <mxGeometry x="-0.045" y="1" relative="1" as="geometry">
                        <mxPoint y="-2" as="offset"/>
                    </mxGeometry>
                </mxCell>
                <mxCell id="65" value="" style="endArrow=none;dashed=1;html=1;strokeWidth=1;startArrow=classic;startFill=1;" edge="1" parent="1">
                    <mxGeometry width="50" height="50" relative="1" as="geometry">
                        <mxPoint x="509.38" y="760" as="sourcePoint"/>
                        <mxPoint x="509.38000000000045" y="720.0000000000002" as="targetPoint"/>
                    </mxGeometry>
                </mxCell>
                <mxCell id="66" value="PR" style="edgeLabel;html=1;align=center;verticalAlign=middle;resizable=0;points=[];" vertex="1" connectable="0" parent="65">
                    <mxGeometry x="-0.045" y="1" relative="1" as="geometry">
                        <mxPoint y="-2" as="offset"/>
                    </mxGeometry>
                </mxCell>
                <mxCell id="67" value="" style="endArrow=none;dashed=1;html=1;strokeWidth=1;startArrow=classic;startFill=1;" edge="1" parent="1">
                    <mxGeometry width="50" height="50" relative="1" as="geometry">
                        <mxPoint x="600" y="800" as="sourcePoint"/>
                        <mxPoint x="600.0000000000005" y="760.0000000000002" as="targetPoint"/>
                    </mxGeometry>
                </mxCell>
                <mxCell id="68" value="PR" style="edgeLabel;html=1;align=center;verticalAlign=middle;resizable=0;points=[];" vertex="1" connectable="0" parent="67">
                    <mxGeometry x="-0.045" y="1" relative="1" as="geometry">
                        <mxPoint y="-2" as="offset"/>
                    </mxGeometry>
                </mxCell>
                <mxCell id="69" value="" style="endArrow=none;dashed=1;html=1;strokeWidth=1;startArrow=classic;startFill=1;" edge="1" parent="1">
                    <mxGeometry width="50" height="50" relative="1" as="geometry">
                        <mxPoint x="560.9900000000001" y="760" as="sourcePoint"/>
                        <mxPoint x="560.9900000000006" y="720.0000000000002" as="targetPoint"/>
                    </mxGeometry>
                </mxCell>
                <mxCell id="70" value="PR" style="edgeLabel;html=1;align=center;verticalAlign=middle;resizable=0;points=[];" vertex="1" connectable="0" parent="69">
                    <mxGeometry x="-0.045" y="1" relative="1" as="geometry">
                        <mxPoint y="-2" as="offset"/>
                    </mxGeometry>
                </mxCell>
            </root>
        </mxGraphModel>
    </diagram>
</mxfile>
